# xmcd
#
# Track frame offsets:
#	183
#	23375
#	37695
#	52583
#	70520
#	87103
#	105043
#	123278
#	142138
#	159775
#	175708
#	197175
#	221735
#	244895
#
# Disc length: 3407 seconds
#
# Revision: 2
# Processed by: cddbd v1.5.1PL2 Copyright (c) Steve Scherf et al.
# Submitted via: EasyCDDAExtractor 8.2.3.1
#
DISCID=a00d4d0e
DTITLE=Various Artist - - Single
DYEAR=2002
DGENRE=Happy Hardcore
TTITLE0=Hackney Hardcore - Caught With A Spliff
TTITLE1=Cultural Assault - Step Up
TTITLE2=Undercover Movement - Acid Rhydems
TTITLE3=Hackney Hardcore - Dancehall Dangerous
TTITLE4=Sonic Experience - Summer Of Love
TTITLE5=Undercover Movement - Moonstompin
TTITLE6=Fantasy UFO - Headstrong
TTITLE7=M-D-Emm - Got Any Hardcore
TTITLE8=Sonic Experience - Protein
TTITLE9=Son Of God - Sunday Raver
TTITLE10=DJ Scoobie - Mash Up The Speakers
TTITLE11=Time Syndicut - Rave Generator
TTITLE12=Fantasy - Fantasy
TTITLE13=strictly underground - Info
EXTD=YEAR: 2002  ID3G:  17
EXTT0=
EXTT1=
EXTT2=
EXTT3=
EXTT4=
EXTT5=
EXTT6=
EXTT7=
EXTT8=
EXTT9=
EXTT10=
EXTT11=
EXTT12=
EXTT13=
PLAYORDER=
